<?xml version="1.0" standalone="no"?>
<!DOCTYPE svg PUBLIC "-//W3C//DTD SVG 20010904//EN"
 "http://www.w3.org/TR/2001/REC-SVG-20010904/DTD/svg10.dtd">
<svg version="1.0" xmlns="http://www.w3.org/2000/svg"
 width="873.000000pt" height="873.000000pt" viewBox="0 0 873.000000 873.000000"
 preserveAspectRatio="xMidYMid meet">
<metadata>
Created by potrace 1.11, written by Peter Selinger 2001-2013
</metadata>
<g transform="translate(0.000000,873.000000) scale(0.100000,-0.100000)"
fill="#000000" stroke="none">
<path d="M6197 7064 c-3 -3 -72 -7 -154 -9 -153 -2 -191 -10 -287 -55 -58 -28
-151 -112 -186 -169 l-25 -40 -65 6 c-51 4 -71 11 -93 32 -46 42 -107 36 -242
-26 -114 -53 -185 -74 -185 -55 0 23 -62 72 -90 72 -16 0 -32 5 -35 11 -4 6
-22 8 -46 4 -31 -5 -50 -1 -94 20 -52 26 -58 27 -101 15 -35 -10 -53 -10 -82
-1 -41 13 -76 11 -94 -7 -15 -15 -38 -16 -38 -1 0 8 -33 10 -117 5 -65 -4
-127 -7 -138 -8 -11 0 -38 3 -60 7 -34 6 -46 2 -78 -19 -28 -19 -51 -26 -87
-26 -63 0 -109 -34 -91 -67 20 -39 14 -46 -36 -40 -50 5 -73 25 -73 64 0 18
-6 23 -26 23 -23 0 -25 3 -22 38 3 36 4 37 46 40 51 4 55 19 7 28 -59 11 -84
-2 -107 -53 l-20 -46 21 -51 c27 -66 27 -73 -7 -101 -16 -13 -48 -60 -72 -106
-52 -96 -86 -123 -180 -139 -36 -7 -79 -18 -95 -25 -41 -17 -83 -68 -91 -110
-14 -76 -61 -11 -51 71 3 31 13 54 32 74 23 24 25 30 14 48 -11 18 -10 24 4
40 21 23 92 46 110 36 6 -4 4 2 -5 13 -30 33 -17 53 34 53 17 0 19 4 13 30 -8
35 8 39 53 16 43 -22 60 -48 64 -96 l3 -45 22 35 c13 19 23 46 23 59 0 38 -46
108 -94 140 -86 59 -183 64 -285 14 -44 -21 -58 -24 -72 -14 -35 21 -49 14
-36 -18 13 -34 -3 -81 -27 -81 -8 0 -17 -15 -20 -35 -12 -62 -33 -46 -96 77
-43 84 -95 141 -145 159 -17 7 -36 21 -41 32 -5 12 -23 29 -40 39 -34 20 -152
39 -186 30 -19 -5 -17 -7 17 -16 44 -13 63 -45 51 -90 -8 -33 -19 -33 -75 3
-70 44 -140 61 -257 61 -111 0 -143 -9 -224 -63 -27 -18 -76 -48 -110 -66
-121 -69 -217 -176 -262 -293 -39 -101 -41 -169 -12 -340 5 -30 3 -38 -9 -38
-14 0 -57 73 -57 97 0 5 -9 18 -20 28 -19 18 -20 17 -45 -39 -14 -31 -25 -71
-25 -89 0 -40 41 -213 69 -292 31 -87 31 -87 -3 -117 -17 -15 -25 -27 -18 -28
22 0 13 -36 -13 -50 -28 -15 -33 -30 -10 -30 18 0 10 -25 -20 -54 -17 -17 -24
-39 -29 -93 -4 -39 -13 -79 -20 -88 -15 -20 -10 -197 5 -227 6 -10 5 -34 -2
-60 -7 -24 -9 -60 -5 -80 5 -30 10 -35 27 -31 20 6 21 3 14 -61 -8 -73 19
-226 40 -226 18 0 11 -255 -10 -325 -19 -66 -41 -115 -59 -130 -7 -5 -23 -26
-36 -45 -13 -19 -56 -67 -95 -106 -89 -91 -156 -170 -174 -206 -7 -15 -20 -28
-28 -28 -12 0 -14 10 -8 53 4 28 14 66 23 82 14 28 91 144 102 155 8 8 75 112
90 139 26 51 60 165 50 171 -6 4 -2 38 12 94 16 70 19 93 10 107 -7 10 -12 43
-12 73 0 30 -5 67 -11 83 -6 15 -13 46 -15 68 -12 118 -59 222 -145 320 -67
77 -87 94 -118 102 -14 3 -47 19 -72 35 -25 15 -54 28 -63 28 -9 0 -33 7 -53
15 -53 22 -186 23 -208 2 -9 -10 -30 -17 -47 -17 -35 0 -128 -49 -128 -68 0
-7 -12 -17 -27 -23 -74 -27 -141 -98 -134 -141 1 -11 -14 -28 -39 -45 -26 -18
-43 -38 -47 -57 -3 -16 -23 -46 -45 -66 -21 -21 -38 -40 -38 -44 0 -3 18 -6
41 -6 23 0 57 -7 76 -17 30 -14 34 -20 30 -43 -5 -25 -2 -27 43 -39 54 -14 75
-32 68 -59 -5 -17 0 -18 41 -15 60 6 101 -10 101 -38 0 -16 4 -19 18 -14 35
15 73 17 102 5 32 -13 39 -34 15 -44 -30 -11 -14 -26 28 -26 49 0 81 -25 92
-72 6 -22 4 -28 -10 -28 -12 0 -15 -5 -10 -17 27 -69 12 -146 -41 -213 -19
-23 -34 -47 -34 -52 0 -6 -8 -22 -19 -36 -23 -34 -51 -117 -51 -152 0 -14 -9
-51 -20 -81 -10 -31 -16 -65 -13 -77 3 -13 1 -22 -6 -22 -13 0 -16 -216 -2
-224 5 -3 11 -20 14 -38 13 -74 20 -98 27 -98 4 0 11 -11 14 -25 4 -14 22 -35
41 -48 24 -15 34 -28 31 -40 -5 -19 34 -54 71 -64 19 -4 23 -11 19 -25 -4 -17
5 -24 45 -41 38 -17 49 -26 49 -44 0 -19 5 -23 30 -23 18 0 30 -5 30 -13 0 -7
5 -18 12 -25 7 -7 13 -40 14 -75 1 -42 8 -75 23 -102 11 -21 21 -54 21 -73 0
-21 8 -41 23 -55 13 -12 31 -50 41 -83 18 -61 18 -63 -2 -124 -18 -53 -20 -69
-11 -111 13 -59 37 -89 218 -274 75 -77 162 -171 193 -210 124 -156 202 -194
340 -165 61 13 68 12 81 -25 8 -19 21 5 26 48 6 37 9 42 30 39 23 -4 24 -2 17
40 -22 155 -20 150 -84 217 -73 76 -74 76 -179 -9 -17 -14 -111 -12 -129 2
-26 23 -146 143 -158 158 -28 36 -58 114 -63 163 -5 49 -3 55 31 97 21 25 43
52 49 60 19 23 57 116 57 139 0 12 9 30 20 41 11 11 20 27 20 35 0 8 6 15 13
15 16 0 37 41 37 72 0 15 5 19 20 15 17 -4 20 0 20 30 0 33 1 34 30 28 17 -4
47 -23 69 -44 l39 -37 87 9 c48 5 89 6 93 3 3 -4 1 -21 -5 -39 -6 -17 -14 -49
-18 -69 -3 -24 -11 -38 -21 -38 -11 0 -13 -9 -8 -40 9 -57 -19 -55 -47 4 -21
42 -22 43 -64 39 -46 -6 -90 12 -125 49 -30 32 -24 5 6 -32 30 -34 73 -60 103
-60 12 0 37 -23 67 -60 94 -120 215 -180 366 -180 37 0 79 -5 94 -11 20 -7 42
-7 76 1 45 11 50 10 78 -13 35 -30 70 -43 79 -30 3 4 27 19 52 32 38 19 51 21
68 12 19 -11 21 -9 21 14 0 34 15 31 51 -10 17 -19 37 -35 45 -35 8 0 4 9 -11
25 -38 37 -34 96 10 165 127 196 96 520 -70 752 -38 53 -43 68 -20 68 8 0 15
7 15 16 0 12 6 15 23 10 57 -17 93 -18 106 -2 19 23 37 20 60 -10 28 -35 27
-79 -1 -98 -12 -9 -18 -16 -12 -16 17 0 52 43 59 72 12 46 -26 113 -84 150
-50 30 -66 58 -36 58 54 0 125 68 125 120 0 13 7 20 20 20 20 0 20 -7 20 -287
1 -314 11 -491 35 -623 9 -47 20 -107 25 -135 12 -71 37 -134 104 -261 61
-117 100 -167 232 -299 154 -153 213 -200 402 -314 164 -100 654 -331 701
-331 27 0 205 63 325 114 163 71 380 182 476 244 179 116 216 141 235 159 11
10 36 31 55 47 132 109 293 328 345 471 14 39 30 79 35 90 17 34 58 236 69
337 6 54 11 244 11 423 0 276 2 325 14 325 16 0 26 -53 24 -135 -3 -118 93
-206 242 -222 33 -3 60 -9 60 -13 0 -5 -15 -31 -34 -59 -101 -150 -107 -325
-16 -490 44 -79 38 -99 -20 -66 -36 21 -73 18 -106 -7 -15 -13 -42 -30 -59
-39 -16 -9 -36 -27 -42 -40 -11 -21 -10 -24 7 -27 24 -4 26 -37 6 -76 -16 -31
-10 -81 6 -52 10 18 68 22 68 5 0 -6 -5 -19 -11 -30 -6 -12 -8 -27 -5 -36 6
-13 9 -13 31 1 27 18 61 21 70 7 10 -17 95 -24 138 -11 23 6 77 34 120 62 l78
49 47 -15 c26 -8 70 -20 99 -26 58 -13 70 -23 75 -63 3 -26 4 -27 23 -13 20
14 20 14 -3 60 -12 26 -22 60 -22 76 0 26 3 30 29 30 16 0 63 -14 104 -30 79
-31 107 -37 107 -20 0 18 43 10 67 -12 27 -25 29 -12 8 39 -20 48 -20 49 23
73 41 23 87 81 97 123 13 49 51 31 150 -68 93 -93 116 -121 148 -176 26 -44
27 -50 17 -116 -25 -179 -72 -285 -131 -298 -15 -3 -55 -1 -88 5 -72 13 -108
1 -129 -43 -8 -16 -21 -31 -30 -34 -24 -9 -32 -24 -32 -62 0 -32 1 -33 18 -18
32 29 42 21 42 -35 0 -50 0 -51 19 -34 31 28 46 16 42 -34 -2 -38 -1 -42 16
-34 21 10 84 9 130 -1 29 -6 37 -3 72 32 22 21 43 51 46 66 5 17 14 27 25 27
18 0 79 56 81 74 1 6 2 43 3 81 2 39 10 95 20 125 24 74 93 209 124 242 34 37
27 94 -20 147 -18 21 -45 52 -59 69 -38 45 -96 232 -71 232 11 0 59 39 118 98
57 55 74 61 94 37 18 -22 139 -55 199 -55 29 0 82 11 122 25 60 21 80 34 139
95 38 39 72 81 76 93 3 12 12 29 19 37 65 75 70 355 9 484 -26 55 -112 156
-132 156 -6 0 -17 6 -24 13 -29 28 -65 45 -78 37 -9 -6 -5 -12 16 -23 17 -8
55 -40 85 -71 75 -75 109 -171 109 -302 -1 -170 -46 -266 -160 -337 -50 -31
-208 -32 -260 -1 -49 28 -80 78 -80 128 0 50 -23 172 -39 206 -22 46 -56 105
-81 140 -18 26 -25 49 -27 96 -2 49 -11 79 -43 145 -22 46 -50 93 -60 104 -11
12 -20 25 -20 29 0 5 -19 38 -43 75 -72 110 -85 178 -44 234 59 83 81 153 75
239 -5 57 -2 70 13 84 22 20 129 215 129 235 0 8 9 36 19 64 51 132 53 324 6
462 -37 107 -51 136 -75 158 -11 10 -20 22 -20 27 0 21 -82 125 -111 142 -26
15 -45 18 -106 13 -74 -5 -75 -5 -68 16 30 97 8 209 -58 283 -44 50 -75 69
-131 79 -21 4 -40 14 -43 22 -9 22 -58 43 -102 43 -22 0 -43 5 -46 10 -9 15
-66 12 -95 -5 -39 -22 -50 -18 -50 18 0 26 6 37 26 47 57 31 119 138 134 233
14 93 -26 188 -99 230 l-32 19 6 -25 c5 -19 2 -25 -13 -29 -17 -5 -19 -12 -14
-58 5 -50 4 -52 -19 -48 -23 3 -24 8 -31 96 -5 81 -10 98 -38 142 -55 86 -148
125 -230 96 -56 -19 -80 -20 -105 -2 -58 39 -215 73 -238 50z m-357 -198 c0
-7 -6 -19 -14 -25 -8 -7 -19 -25 -24 -41 -9 -26 -8 -29 11 -32 17 -2 22 -9 20
-31 -1 -22 2 -27 22 -27 13 0 31 7 40 16 10 10 26 14 42 11 20 -4 54 9 126 46
92 49 103 52 170 52 75 0 127 -10 127 -24 0 -15 -77 -91 -93 -91 -8 0 -28 -11
-44 -23 -16 -14 -48 -27 -76 -30 -77 -11 -107 -35 -121 -102 l-7 -30 20 32
c11 18 34 39 50 48 36 18 112 20 129 3 18 -18 14 -38 -8 -38 -11 0 -20 -4 -20
-8 0 -14 51 -57 114 -96 52 -33 58 -40 53 -64 -3 -14 2 -44 10 -65 12 -29 13
-41 4 -50 -17 -17 -15 -22 39 -82 64 -74 84 -134 78 -230 -6 -86 -32 -139
-102 -203 -42 -38 -86 -55 -86 -33 0 5 -22 43 -50 84 -53 79 -59 97 -35 97 23
0 18 16 -11 39 -35 27 -41 27 -75 -10 l-28 -31 -68 28 c-82 32 -171 41 -255
25 -142 -28 -166 -35 -234 -67 -77 -36 -149 -104 -185 -176 -22 -44 -37 -46
-120 -22 -88 26 -169 72 -231 132 -56 54 -74 92 -42 92 8 0 30 -11 47 -24 84
-64 218 -106 288 -91 49 11 108 70 115 116 5 28 18 49 46 75 35 31 43 34 71
27 18 -4 70 -8 117 -8 70 0 93 4 132 24 46 23 51 24 138 13 146 -18 237 7 312
85 100 104 102 241 3 298 -57 34 -65 31 -28 -7 57 -59 69 -135 32 -194 -24
-39 -43 -43 -60 -12 l-12 22 -14 -27 c-16 -32 -48 -36 -56 -7 -6 23 -35 27
-43 5 -4 -8 -16 -15 -29 -15 -12 0 -36 -7 -54 -16 -47 -23 -64 -13 -54 33 4
21 8 72 8 113 -1 64 -6 84 -32 135 -39 75 -94 138 -167 190 -30 22 -56 47 -56
56 0 9 13 34 30 57 48 67 140 118 140 78z m-3710 -307 c0 -6 -10 -19 -22 -29
l-23 -18 51 -7 c47 -7 53 -10 58 -36 6 -34 9 -34 113 -14 79 15 199 20 227 9
33 -13 16 -31 -34 -36 -31 -3 -59 -13 -73 -25 -12 -11 -45 -28 -72 -38 -49
-17 -52 -17 -119 4 -37 11 -94 21 -125 21 -115 -1 -210 -80 -182 -151 l10 -24
0 23 c3 88 101 138 224 112 62 -13 73 -29 33 -55 -12 -8 -31 -30 -41 -49 -17
-31 -17 -35 -2 -57 l17 -23 0 24 c0 47 14 55 89 55 38 0 73 -4 77 -8 4 -4 0
-21 -10 -38 -22 -37 -16 -44 30 -41 l35 3 -3 -43 c-3 -49 -19 -55 -53 -23 -19
19 -27 20 -170 12 -82 -5 -168 -9 -189 -10 -39 -2 -40 -1 -62 53 -25 62 -25
61 -55 -45 -13 -48 -20 -61 -38 -63 -36 -6 -101 67 -101 113 0 30 39 16 54
-20 18 -41 32 -44 48 -10 9 20 5 41 -26 129 -43 122 -53 185 -37 244 14 51 32
61 60 33 12 -12 32 -21 46 -21 20 0 25 -5 25 -25 0 -20 5 -25 26 -25 34 0 60
15 116 66 45 42 98 60 98 33z m3253 -125 c54 -49 120 -78 146 -64 11 5 24 10
30 10 16 0 13 -36 -5 -54 -14 -15 -14 -16 5 -16 30 0 135 -114 138 -149 1 -14
5 -38 8 -52 8 -31 -10 -39 -85 -39 -85 0 -88 3 -83 78 4 55 1 73 -17 100 -22
36 -73 62 -117 62 -28 -1 -27 -1 9 -21 51 -27 70 -58 66 -111 -4 -54 -32 -66
-43 -19 -6 28 -37 61 -57 61 -5 0 -8 -9 -8 -20 0 -17 -6 -20 -44 -19 -29 2
-55 -5 -78 -19 -36 -23 -92 -29 -117 -13 -11 7 -9 18 13 62 30 61 34 124 11
189 -8 23 -15 46 -15 50 0 5 33 6 74 3 45 -4 80 -1 92 5 28 17 33 15 77 -24z
m1859 -351 c9 -10 23 -44 32 -76 10 -33 25 -62 36 -70 13 -8 20 -23 20 -43 0
-43 -43 -87 -108 -110 -29 -10 -52 -24 -52 -31 0 -6 -12 -18 -27 -25 -15 -7
-37 -29 -50 -48 -42 -65 -48 -71 -87 -80 -54 -12 -246 -1 -246 15 0 6 12 22
26 36 15 13 35 42 45 65 10 22 28 49 40 60 32 29 52 73 58 134 7 66 23 73 71
34 34 -29 126 -50 145 -33 16 16 35 10 35 -11 0 -26 8 -25 37 2 31 29 30 78
-2 116 -30 36 -34 82 -7 82 11 0 26 -8 34 -17z m-4669 -27 c23 -13 59 -29 80
-36 21 -6 60 -27 87 -45 78 -52 170 -80 270 -80 86 0 91 2 155 49 7 6 26 -2
53 -21 23 -17 71 -39 107 -49 135 -39 40 -70 -185 -60 -178 7 -315 42 -505
128 -60 27 -116 55 -123 62 -14 13 -6 76 10 76 5 0 28 -11 51 -24z m3057 -265
c0 -5 4 -21 10 -35 9 -25 10 -25 39 -8 38 22 47 12 32 -38 l-12 -40 -94 0
c-99 0 -105 3 -89 44 7 19 34 21 34 4 0 -7 12 8 27 35 23 42 53 63 53 38z
m-3524 -11 c21 0 24 -5 24 -40 0 -30 7 -47 25 -65 13 -14 30 -25 37 -25 9 0 9
3 0 12 -19 19 -14 56 11 72 42 28 76 30 107 8 16 -13 36 -19 48 -15 12 3 46
-3 77 -12 63 -20 75 -45 21 -45 -19 0 -47 -5 -63 -11 -25 -9 -26 -12 -10 -20
28 -16 20 -36 -20 -44 -83 -15 -137 -60 -150 -125 -5 -27 -33 -44 -33 -21 0 5
-8 12 -18 15 -10 3 -35 27 -56 52 -35 42 -37 48 -26 70 17 32 -1 69 -41 83
-16 5 -29 15 -29 21 0 6 -11 15 -25 20 -20 8 -25 16 -25 46 l0 37 61 -7 c34
-3 73 -6 85 -6z m671 -265 l63 -18 -6 -53 c-8 -60 7 -126 36 -164 l20 -25 0
33 c0 41 19 41 47 -1 12 -17 49 -59 82 -92 34 -33 61 -66 61 -72 0 -16 -53
-17 -96 -1 -32 11 -59 3 -132 -43 -16 -10 -28 -10 -60 0 l-39 13 1 97 c1 102
-12 168 -50 263 -29 70 -31 92 -6 85 9 -2 45 -13 79 -22z m-432 -43 c-9 -53
18 -78 72 -67 65 14 112 8 150 -17 l36 -24 2 -122 c3 -121 3 -123 -18 -120
-15 2 -31 20 -49 57 -40 78 -78 115 -78 76 0 -8 -6 -15 -14 -15 -7 0 -19 7
-26 15 -7 8 -18 15 -24 15 -6 1 -45 32 -86 69 -71 65 -74 70 -65 97 10 29 66
74 92 74 11 0 13 -9 8 -38z m1267 -29 c20 -27 57 -68 82 -93 26 -24 46 -53 46
-65 0 -37 -159 -175 -202 -175 -24 0 -23 19 6 61 31 46 48 108 40 150 -4 19
-21 60 -38 92 -26 49 -29 59 -16 67 28 18 46 10 82 -37z m-254 -55 c15 -15 16
-53 2 -79 -8 -14 -21 -19 -52 -19 -35 0 -40 2 -35 20 3 11 1 23 -4 26 -5 3 -9
14 -9 26 0 17 4 19 25 14 18 -5 27 -2 31 9 7 18 26 19 42 3z m132 -77 c14 -27
12 -111 -4 -139 -13 -25 -63 -62 -83 -62 -7 0 -13 10 -13 23 0 24 -23 64 -48
84 -21 17 -8 40 26 48 16 3 42 19 57 35 33 35 50 38 65 11z m3280 -131 c0 -18
72 -90 90 -90 26 0 50 -27 57 -63 l6 -30 19 22 c10 13 18 36 18 51 0 24 5 29
27 32 22 2 28 8 28 28 0 17 7 26 25 31 81 23 85 -1 16 -103 -34 -51 -75 -97
-106 -120 -59 -44 -70 -46 -70 -16 0 62 -85 144 -175 169 -38 11 -47 34 -16
44 11 3 26 17 35 30 16 25 46 34 46 15z m-3516 -42 c5 -9 7 -20 3 -25 -11 -10
-41 11 -45 31 -5 23 26 18 42 -6z m3292 -7 c5 -5 20 -11 34 -13 35 -4 37 -33
3 -45 -15 -6 -50 -27 -77 -48 -45 -34 -92 -55 -123 -55 -6 0 -11 13 -11 29 1
26 -7 44 -47 97 -14 20 1 28 63 35 91 10 147 10 158 0z m-242 -92 c30 -24 36
-78 10 -103 -14 -15 -14 -16 2 -16 14 0 16 -7 10 -52 -4 -29 -12 -57 -17 -63
-8 -8 -129 26 -161 46 -6 4 -13 30 -16 58 -4 49 -4 51 20 51 23 0 25 4 24 37
-1 34 2 39 34 50 50 17 64 16 94 -8z m435 -15 c95 -19 120 -153 42 -234 l-27
-29 -67 12 c-70 12 -74 16 -61 65 6 19 11 22 35 17 22 -5 29 -3 29 8 0 18 -60
72 -89 82 -26 8 -27 27 -3 48 36 33 82 43 141 31z m-4294 -333 c44 -9 40 -40
-10 -67 -22 -13 -44 -26 -50 -31 -17 -15 -91 -33 -134 -33 -35 0 -41 3 -41 21
0 18 4 20 29 14 29 -6 30 -6 24 28 -4 29 -1 37 22 55 29 23 92 28 160 13z
m292 -140 c82 -65 129 -114 172 -175 39 -57 41 -62 41 -138 0 -56 -4 -78 -12
-78 -24 0 -35 15 -42 51 -19 106 -119 235 -215 281 -54 25 -59 36 -35 73 22
33 34 32 91 -14z m-49 -151 c41 -25 42 -50 2 -50 -27 0 -29 -2 -18 -20 10 -15
9 -28 -6 -69 -17 -49 -17 -49 8 -113 14 -36 26 -68 26 -73 0 -16 -33 -45 -52
-45 -14 0 -18 8 -18 35 0 76 -42 132 -106 142 -39 6 -39 6 -21 -14 25 -29 35
-93 14 -93 -9 0 -19 5 -22 10 -11 18 -35 11 -35 -10 0 -27 -16 -25 -85 10 -88
45 -95 54 -95 123 l0 59 33 -7 c17 -3 55 -9 83 -12 l51 -5 19 47 c16 39 23 45
42 42 18 -4 22 0 22 23 0 37 5 40 69 40 38 0 66 -6 89 -20z m3401 -56 c57 -20
100 -27 176 -29 131 -4 245 -23 245 -41 0 -8 -6 -14 -14 -14 -7 0 -19 -7 -26
-15 -7 -8 -21 -15 -31 -15 -11 0 -19 -7 -19 -15 0 -8 -4 -15 -10 -15 -5 0 -37
-21 -70 -46 -41 -31 -66 -43 -79 -39 -10 3 -39 -1 -65 -10 -46 -16 -46 -16
-81 12 -20 15 -42 38 -51 51 -8 13 -26 27 -40 32 -23 9 -24 14 -24 90 0 44 3
80 7 80 3 0 40 -12 82 -26z m518 -360 c-4 -25 -2 -37 9 -41 18 -7 18 -22 -2
-44 -14 -15 -12 -18 17 -28 18 -6 56 -11 85 -11 40 0 54 -4 54 -14 0 -25 -21
-30 -113 -31 -81 0 -90 -2 -108 -24 -25 -31 -24 -43 4 -36 18 4 25 -1 37 -27
12 -26 25 -36 63 -47 49 -15 61 -35 27 -46 -29 -9 -93 11 -132 43 -54 43 -140
69 -180 55 -18 -6 -65 -10 -104 -9 -81 1 -114 18 -134 67 -13 29 -12 34 5 43
10 6 53 35 96 64 43 28 83 52 89 52 14 0 13 -33 -2 -49 -7 -8 -1 -6 13 3 15 9
33 30 39 47 20 46 91 77 104 44 8 -21 33 -19 63 5 14 11 37 20 51 20 23 0 24
-3 19 -36z m-4293 -70 c9 -8 16 -17 16 -19 0 -9 -60 -35 -81 -35 -17 0 -20 4
-15 23 3 12 6 28 6 35 0 17 56 15 74 -4z m104 -26 c-2 -28 -8 -34 -30 -36 -22
-3 -28 1 -28 17 0 35 12 51 37 51 21 0 24 -4 21 -32z m-378 -312 c16 -18 72
-63 125 -101 154 -109 210 -185 191 -260 -6 -23 -4 -25 19 -19 23 6 25 3 25
-26 0 -38 -55 -100 -90 -100 -18 0 -21 4 -16 28 9 38 -16 113 -53 164 -17 23
-31 51 -31 62 -1 22 -70 87 -114 107 -14 7 -26 18 -26 24 0 7 -17 20 -37 30
-79 38 -88 44 -91 65 -4 26 24 60 50 60 10 0 32 -15 48 -34z m4895 -497 c8
-25 1 -34 -20 -26 -19 8 -20 47 -1 47 8 0 18 -9 21 -21z m-4505 -35 c0 -34
-58 -64 -126 -64 -49 0 -49 0 -33 44 11 31 12 31 85 32 54 1 74 -2 74 -12z
m4191 -76 c18 -21 20 -22 29 -5 25 40 74 2 52 -40 -5 -10 -7 -24 -5 -31 3 -8
-10 -29 -28 -48 -39 -40 -85 -45 -137 -14 -43 26 -48 44 -23 76 12 15 21 40
21 55 0 27 3 29 36 29 25 0 42 -7 55 -22z m-4413 -140 c-2 -18 -11 -24 -35
-26 -27 -3 -33 0 -33 16 0 26 8 32 42 32 25 0 29 -4 26 -22z m452 -133 c0 -24
-5 -35 -15 -35 -10 0 -15 11 -15 35 0 24 5 35 15 35 10 0 15 -11 15 -35z m-10
-81 c0 -8 -7 -14 -15 -14 -8 0 -15 9 -15 20 0 13 5 18 15 14 8 -4 15 -12 15
-20z m-20 -44 c0 -11 -7 -20 -15 -20 -8 0 -15 9 -15 20 0 11 7 20 15 20 8 0
15 -9 15 -20z"/>
</g>
</svg>
